name rise30.3154peak39.0474fall46.5389.mot
datacolumns 19
datarows 29
range 13.84328100000000 13.88997300000000
endheader
time	ground_force1_vx	ground_force1_vy	ground_force1_vz	ground_force1_px	ground_force1_py	ground_force1_pz	ground_force2_vx	ground_force2_vy	ground_force2_vz	ground_force2_px	ground_force2_py	ground_force2_pz	ground_torque1_x	ground_torque1_y	ground_torque1_z	ground_torque2_x	ground_torque2_y	ground_torque2_z	
13.84328100000000	-8.19456100000000	44.24316300000000	-10.48325700000000	0.33979900000000	0.00000000000000	0.08801300000000	-39.51764500000000	783.18152799999996	-53.92274600000000	0.17915200000000	0.00000000000000	-0.10018800000000	0.00000000000000	-7.66860500000000	0.00000000000000	0.00000000000000	-24.79687000000000	0.00000000000000	
13.84497300000000	-8.97781900000000	52.10772400000000	-11.74150000000000	0.34527900000000	0.00000000000000	0.08929900000000	-40.35085900000000	780.41901099999995	-53.73798800000000	0.17793800000000	0.00000000000000	-0.10016600000000	0.00000000000000	-8.67044100000000	0.00000000000000	0.00000000000000	-24.76898500000000	0.00000000000000	
13.84661300000000	-9.60350400000000	60.13368000000000	-12.86756700000000	0.35021600000000	0.00000000000000	0.09043700000000	-41.20163200000000	777.54598499999997	-53.53590700000000	0.17671900000000	0.00000000000000	-0.10014300000000	0.00000000000000	-9.58986300000000	0.00000000000000	0.00000000000000	-24.74137900000000	0.00000000000000	
13.84828000000000	-10.04928100000000	68.22120300000000	-13.83350600000000	0.35470700000000	0.00000000000000	0.09145300000000	-42.06907600000000	774.56041200000004	-53.31608300000000	0.17549700000000	0.00000000000000	-0.10011800000000	0.00000000000000	-10.40479400000000	0.00000000000000	0.00000000000000	-24.71394300000000	0.00000000000000	
13.84995100000000	-10.30197800000000	76.29258500000000	-14.62107200000000	0.35882700000000	0.00000000000000	0.09236600000000	-42.95219800000000	771.46016099999997	-53.07810200000000	0.17427100000000	0.00000000000000	-0.10009200000000	0.00000000000000	-11.10016700000000	0.00000000000000	0.00000000000000	-24.68655100000000	0.00000000000000	
13.85161800000000	-10.35744600000000	84.29483999999999	-15.22181100000000	0.36263300000000	0.00000000000000	0.09319300000000	-43.84990100000000	768.24301400000002	-52.82156000000000	0.17304500000000	0.00000000000000	-0.10006400000000	0.00000000000000	-11.66812600000000	0.00000000000000	0.00000000000000	-24.65906200000000	0.00000000000000	
13.85328600000000	-10.21970200000000	92.19984700000001	-15.63632600000000	0.36617400000000	0.00000000000000	0.09394700000000	-44.76098800000000	764.90667800000006	-52.54606500000000	0.17181800000000	0.00000000000000	-0.10003400000000	0.00000000000000	-12.10759400000000	0.00000000000000	0.00000000000000	-24.63131500000000	0.00000000000000	
13.85496200000000	-9.89955700000000	100.00240900000000	-15.87293100000000	0.36948800000000	0.00000000000000	0.09463800000000	-45.68415800000000	761.44878300000005	-52.25123800000000	0.17059100000000	0.00000000000000	-0.10000300000000	0.00000000000000	-12.42337000000000	0.00000000000000	0.00000000000000	-24.60313400000000	0.00000000000000	
13.85661300000000	-9.41291500000000	107.71675500000001	-15.94590500000000	0.37260500000000	0.00000000000000	0.09527400000000	-46.61801400000000	757.86689799999999	-51.93672000000000	0.16936800000000	0.00000000000000	-0.09996900000000	0.00000000000000	-12.62488600000000	0.00000000000000	0.00000000000000	-24.57432700000000	0.00000000000000	
13.85827900000000	-8.77896400000000	115.37206399999999	-15.87356000000000	0.37555100000000	0.00000000000000	0.09586400000000	-47.56106000000000	754.15853500000003	-51.60216600000000	0.16814800000000	0.00000000000000	-0.09993400000000	0.00000000000000	-12.72480500000000	0.00000000000000	0.00000000000000	-24.54468800000000	0.00000000000000	
13.85995800000000	-8.01840400000000	123.00752000000000	-15.67632100000000	0.37834900000000	0.00000000000000	0.09641100000000	-48.51170600000000	750.32115999999996	-51.24725800000000	0.16693300000000	0.00000000000000	-0.09989600000000	0.00000000000000	-12.73759500000000	0.00000000000000	0.00000000000000	-24.51399200000000	0.00000000000000	
13.86161700000000	-7.15186000000000	130.66741999999999	-15.37496400000000	0.38101500000000	0.00000000000000	0.09692200000000	-49.46827100000000	746.35220100000004	-50.87170000000000	0.16572500000000	0.00000000000000	-0.09985500000000	0.00000000000000	-12.67820000000000	0.00000000000000	0.00000000000000	-24.48200300000000	0.00000000000000	
13.86328300000000	-6.19857900000000	138.39667900000001	-14.98913000000000	0.38356500000000	0.00000000000000	0.09740000000000	-50.42898600000000	742.24906399999998	-50.47522300000000	0.16452400000000	0.00000000000000	-0.09981200000000	0.00000000000000	-12.56089600000000	0.00000000000000	0.00000000000000	-24.44847000000000	0.00000000000000	
13.86495300000000	-5.17545500000000	146.23704900000001	-14.53618500000000	0.38601200000000	0.00000000000000	0.09784900000000	-51.39199600000000	738.00913900000000	-50.05758900000000	0.16333400000000	0.00000000000000	-0.09976700000000	0.00000000000000	-12.39840300000000	0.00000000000000	0.00000000000000	-24.41312600000000	0.00000000000000	
13.86661500000000	-4.09640600000000	154.22420000000000	-14.03045100000000	0.38836600000000	0.00000000000000	0.09827200000000	-52.35537000000000	733.62981700000000	-49.61859400000000	0.16215500000000	0.00000000000000	-0.09971800000000	0.00000000000000	-12.20125600000000	0.00000000000000	0.00000000000000	-24.37569600000000	0.00000000000000	
13.86828200000000	-2.97208300000000	162.38573700000001	-13.48280200000000	0.39063700000000	0.00000000000000	0.09867100000000	-53.31709600000000	729.10850000000005	-49.15806700000000	0.16098800000000	0.00000000000000	-0.09966700000000	0.00000000000000	-11.97746400000000	0.00000000000000	0.00000000000000	-24.33588900000000	0.00000000000000	
13.86994700000000	-1.80988600000000	170.74014000000000	-12.90059500000000	0.39283300000000	0.00000000000000	0.09904900000000	-54.27509500000000	724.44262000000003	-48.67587600000000	0.15983700000000	0.00000000000000	-0.09961200000000	0.00000000000000	-11.73241200000000	0.00000000000000	0.00000000000000	-24.29340500000000	0.00000000000000	
13.87161800000000	-0.61421100000000	179.29653800000000	-12.28787400000000	0.39496000000000	0.00000000000000	0.09940700000000	-55.22722200000000	719.62964899999997	-48.17192900000000	0.15870100000000	0.00000000000000	-0.09955400000000	0.00000000000000	-11.46897900000000	0.00000000000000	0.00000000000000	-24.24793300000000	0.00000000000000	
13.87328000000000	0.61311000000000	188.05517900000001	-11.64579000000000	0.39702500000000	0.00000000000000	0.09974800000000	-56.17127100000000	714.66712099999995	-47.64617600000000	0.15758300000000	0.00000000000000	-0.09949300000000	0.00000000000000	-11.18782900000000	0.00000000000000	0.00000000000000	-24.19915300000000	0.00000000000000	
13.87494900000000	1.87226700000000	197.00843499999999	-10.97315600000000	0.39903300000000	0.00000000000000	0.10007200000000	-57.10498300000000	709.55264299999999	-47.09861200000000	0.15648500000000	0.00000000000000	-0.09942800000000	0.00000000000000	-10.88780600000000	0.00000000000000	0.00000000000000	-24.14673400000000	0.00000000000000	
13.87661800000000	3.16486800000000	206.14217099999999	-10.26708100000000	0.40098700000000	0.00000000000000	0.10038100000000	-58.02605000000000	704.28391899999997	-46.52927700000000	0.15540800000000	0.00000000000000	-0.09935900000000	0.00000000000000	-10.56640500000000	0.00000000000000	0.00000000000000	-24.09034100000000	0.00000000000000	
13.87828700000000	4.49334400000000	215.43730500000001	-9.52361500000000	0.40289200000000	0.00000000000000	0.10067500000000	-58.93212400000000	698.85876399999995	-45.93826200000000	0.15435400000000	0.00000000000000	-0.09928600000000	0.00000000000000	-10.22025400000000	0.00000000000000	0.00000000000000	-24.02962900000000	0.00000000000000	
13.87995000000000	5.86039500000000	224.87140800000000	-8.73835800000000	0.40475000000000	0.00000000000000	0.10095700000000	-59.82082300000000	693.27512600000000	-45.32570400000000	0.15332400000000	0.00000000000000	-0.09920800000000	0.00000000000000	-9.84557700000000	0.00000000000000	0.00000000000000	-23.96424800000000	0.00000000000000	
13.88161900000000	7.26852000000000	234.42023499999999	-7.90699000000000	0.40656600000000	0.00000000000000	0.10122700000000	-60.68973500000000	687.53110300000003	-44.69179200000000	0.15232100000000	0.00000000000000	-0.09912700000000	0.00000000000000	-9.43860500000000	0.00000000000000	0.00000000000000	-23.89384300000000	0.00000000000000	
13.88328700000000	8.71964500000000	244.05906100000001	-7.02570800000000	0.40833900000000	0.00000000000000	0.10148600000000	-61.53643000000000	681.62495899999999	-44.03676800000000	0.15134500000000	0.00000000000000	-0.09904100000000	0.00000000000000	-8.99591700000000	0.00000000000000	0.00000000000000	-23.81805600000000	0.00000000000000	
13.88494800000000	10.21485200000000	253.76379399999999	-6.09154300000000	0.41007400000000	0.00000000000000	0.10173400000000	-62.35846200000000	675.55515100000002	-43.36092400000000	0.15040000000000	0.00000000000000	-0.09895000000000	0.00000000000000	-8.51469500000000	0.00000000000000	0.00000000000000	-23.73652400000000	0.00000000000000	
13.88661300000000	11.75422600000000	263.51180699999998	-5.10256700000000	0.41177100000000	0.00000000000000	0.10197200000000	-63.15338300000000	669.32033400000000	-42.66460700000000	0.14948600000000	0.00000000000000	-0.09885400000000	0.00000000000000	-7.99289400000000	0.00000000000000	0.00000000000000	-23.64888500000000	0.00000000000000	
13.88828700000000	13.33679000000000	273.28249799999998	-4.05798800000000	0.41343100000000	0.00000000000000	0.10220000000000	-63.91874300000000	662.91938900000002	-41.94821800000000	0.14860500000000	0.00000000000000	-0.09875400000000	0.00000000000000	-7.42932800000000	0.00000000000000	0.00000000000000	-23.55477300000000	0.00000000000000	
13.88997300000000	14.96053700000000	283.05758200000002	-2.95815600000000	0.41505600000000	0.00000000000000	0.10242000000000	-64.65210399999999	656.35142800000006	-41.21221100000000	0.14775900000000	0.00000000000000	-0.09864800000000	0.00000000000000	-6.82368500000000	0.00000000000000	0.00000000000000	-23.45382600000000	0.00000000000000	
